Coordinates
version=1
nRows=13
nColumns=34
inDegrees=yes

Units are S.I. units (second, meters, Newtons, ...)
If the header above contains a line with 'inDegrees', this indicates whether rotational values are in degrees (yes) or radians (no).

endheader
time	pelvis_tilt	pelvis_list	pelvis_rotation	pelvis_tx	pelvis_ty	pelvis_tz	hip_flexion_r	hip_adduction_r	hip_rotation_r	knee_angle_r	ankle_angle_r	subtalar_angle_r	mtp_angle_r	hip_flexion_l	hip_adduction_l	hip_rotation_l	knee_angle_l	ankle_angle_l	subtalar_angle_l	mtp_angle_l	lumbar_extension	lumbar_bending	lumbar_rotation	arm_flex_r	arm_add_r	arm_rot_r	elbow_flex_r	pro_sup_r	arm_flex_l	arm_add_l	arm_rot_l	elbow_flex_l	pro_sup_l
      3.00000000	      7.94370765	    -19.18769086	    -17.78461740	      3.61211822	      0.94882176	      1.10339641	     23.55841278	      6.39285255	    -16.93954513	     31.27525050	     -3.55788989	      3.89459831	      0.00000000	     17.35934406	     -3.47741437	      5.93061583	     11.70971252	      5.24429517	     -6.53436276	      0.00000000	    -15.03183939	      6.36803900	      0.18888628	      0.48523193	    -13.84140670	     19.24754212	     90.91896806	    119.74817918	     -1.75461505	    -13.36339272	     19.53489248	     97.52892968	    119.74817918
      3.01666670	      7.87546978	    -19.26391598	    -17.65277262	      3.61385597	      0.94870096	      1.10425652	     23.74456224	      6.40480837	    -17.14871862	     31.78091605	     -3.23016354	      3.59130196	      0.00000000	     16.95371098	     -3.58665466	      6.10821959	     10.80402028	      5.67204816	     -6.05713678	      0.00000000	    -14.85945826	      6.70802872	      0.35125326	      0.34358690	    -14.49491110	     19.61358078	     90.56259980	    119.74817918	     -1.29901908	    -13.40336416	     19.57107909	     97.93762769	    119.74817918
      3.03333330	      8.64063663	    -19.09016192	    -16.99055687	      3.61640845	      0.95024148	      1.10501198	     22.97513646	      6.02130748	    -16.96698835	     32.06378708	     -2.76129604	      3.22363773	      0.00000000	     15.66380736	     -3.30564736	      5.18089719	      9.78479889	      7.22830713	     -2.60848212	      0.00000000	    -15.30101672	      6.52136462	     -0.24666167	      0.59481043	    -15.22193333	     20.97034958	     89.90359399	    119.74817918	     -1.02251669	    -13.55920884	     19.29667322	     98.18064454	    119.74817918
      3.05000000	      8.73676614	    -18.81568942	    -16.57668088	      3.61880539	      0.95018742	      1.10554679	     23.14660767	      5.69680792	    -16.62977035	     32.70093098	     -2.34052029	      2.58924023	      0.00000000	     15.28797536	     -2.92774340	      5.67084516	      8.99804010	      7.49357259	     -1.67139779	      0.00000000	    -15.09198512	      6.55427287	     -0.28054851	      0.26843684	    -16.09871475	     21.45606936	     89.83610802	    119.74817918	     -0.46700203	    -13.30207329	     19.21857462	     97.94714956	    119.74817918
      3.06666670	      9.25363739	    -18.41554036	    -16.27751123	      3.62115329	      0.95101454	      1.10696909	     22.95543058	      5.34939197	    -15.78613657	     33.39420635	     -2.06255563	      1.63664428	      0.00000000	     14.50558191	     -2.52282880	      4.59097161	      8.25572530	      7.48078437	      0.98655726	      0.00000000	    -15.37448742	      6.19248993	     -0.26229846	     -0.04141613	    -16.85353150	     22.24098017	     89.39732795	    119.74817918	     -0.23109663	    -13.28577292	     18.81577143	     98.24002288	    119.74817918
      3.08333330	      9.19046474	    -18.22269546	    -15.88491539	      3.62226832	      0.95105703	      1.10732479	     23.15678828	      5.17466050	    -15.67049400	     33.63802445	     -2.08125694	      1.12237608	      0.00000000	     14.53500274	     -2.31126752	      4.84814597	      7.72903635	      6.48875806	      1.83619483	      0.00000000	    -15.43106360	      6.32503743	     -0.23702661	     -0.45970524	    -17.68175458	     22.64862640	     89.33476519	    119.74817918	      0.23678517	    -13.17348598	     18.67513674	     98.21555614	    119.74817918
      3.10000000	      9.16341143	    -17.98897384	    -15.43619105	      3.62260657	      0.95132682	      1.10748602	     23.25796378	      5.00253257	    -15.49791606	     33.64533552	     -2.21782783	      0.48252923	      0.00000000	     14.78355069	     -2.03853260	      4.80943971	      7.47117845	      5.08944681	      2.44126350	      0.00000000	    -15.67257990	      6.32185146	     -0.29121713	     -0.69258346	    -18.39353726	     23.14277607	     89.24824983	    119.74817918	      0.59095177	    -13.12175528	     18.74386214	     98.42514998	    119.74817918
      3.11666670	      9.24304447	    -17.47297876	    -15.21383873	      3.62262251	      0.95149233	      1.10844613	     23.53124162	      4.72195856	    -14.72633422	     33.98381050	     -2.50206553	     -0.95173986	      0.00000000	     15.13012116	     -1.52866802	      4.70141089	      7.64850850	      3.39025609	      2.55086488	      0.00000000	    -15.93829865	      5.85793775	     -0.35791347	     -0.64042460	    -19.10651602	     24.07043966	     89.00431857	    119.74817918	      0.93938700	    -13.11618410	     18.60806529	     98.71106854	    119.74817918
      3.13333330	      9.35215446	    -17.15736640	    -14.92918727	      3.62188822	      0.95232220	      1.10905357	     23.48155703	      4.49600603	    -14.53060190	     33.84478244	     -2.64499670	     -1.22946827	      0.00000000	     15.78702716	     -1.17993788	      4.25471810	      8.48327496	      1.67300586	      2.58436436	      0.00000000	    -16.37153079	      5.63981329	     -0.55375314	     -0.50079482	    -19.54048790	     24.35667560	     89.28313793	    119.74817918	      1.43865231	    -13.30250335	     18.49884355	     98.68875049	    119.74817918
      3.15000000	      9.30143069	    -16.21739847	    -15.04106634	      3.62097557	      0.95257625	      1.11004692	     24.11387415	      3.87850534	    -13.42509819	     34.25138484	     -3.16840853	     -2.56363175	      0.00000000	     16.80532748	     -0.28378895	      4.03937104	      9.39083441	     -0.57778469	      1.89617152	      0.00000000	    -16.39984155	      4.70335131	     -0.60994970	     -0.38071746	    -19.83542649	     25.04557111	     89.30066004	    119.74817918	      1.73364994	    -13.58088918	     18.41866852	     99.09874564	    119.74817918
      3.16666670	      9.49336479	    -15.95112675	    -14.95473485	      3.61989158	      0.95380732	      1.11062481	     23.84535106	      3.74226301	    -13.01855582	     33.88982350	     -3.14198632	     -2.58536373	      0.00000000	     17.71245817	     -0.04271657	      3.53286242	     10.83480572	     -2.51670991	      1.74374107	      0.00000000	    -16.94004992	      4.44691539	     -0.59449896	     -0.26621372	    -19.82000505	     25.20391231	     89.59643614	    119.74817918	      2.18719527	    -13.57734555	     18.12447387	     99.26214858	    119.74817918
      3.18333330	      9.34816787	    -15.20298511	    -15.59248509	      3.61808541	      0.95445350	      1.11203131	     24.24378569	      3.34611646	    -12.30686635	     33.72836860	     -3.44814087	     -2.84392929	      0.00000000	     19.07238494	      0.44831536	      2.51581632	     12.23381576	     -5.45508470	      0.42439371	      0.00000000	    -17.04833182	      3.58989206	     -0.18005337	      0.25413361	    -19.73323297	     25.62552292	     89.35306386	    119.74817918	      2.60419515	    -13.68415448	     17.95635098	     99.67829567	    119.74817918
      3.20000000	      9.16494273	    -13.99353570	    -16.61918212	      3.61605922	      0.95433695	      1.11428260	     25.23157445	      2.78006209	    -10.53720048	     34.25928610	     -3.54879356	     -3.24965022	      0.00000000	     20.36660672	      1.39143295	      2.55693982	     13.26575501	     -8.26634401	     -1.42391670	      0.00000000	    -16.95692796	      2.06618123	      0.34940705	      1.02727276	    -19.29278003	     26.00054519	     88.79928161	    119.74817918	      3.02629550	    -13.78823301	     17.70611726	     99.84474328	    119.74817918
